<?xml version="1.0" encoding="UTF-8" standalone="no"?>
<svg
   xmlns:dc="http://purl.org/dc/elements/1.1/"
   xmlns:cc="http://creativecommons.org/ns#"
   xmlns:rdf="http://www.w3.org/1999/02/22-rdf-syntax-ns#"
   xmlns:svg="http://www.w3.org/2000/svg"
   xmlns="http://www.w3.org/2000/svg"
   viewBox="0 0 570 131.8625"
   height="131.8625"
   width="570"
   xml:space="preserve"
   version="1.1"
   id="svg2"><metadata
     id="metadata8"><rdf:RDF><cc:Work
         rdf:about=""><dc:format>image/svg+xml</dc:format><dc:type
           rdf:resource="http://purl.org/dc/dcmitype/StillImage" /></cc:Work></rdf:RDF></metadata><defs
     id="defs6"><clipPath
       id="clipPath18"
       clipPathUnits="userSpaceOnUse"><path
         id="path20"
         d="m 0,0 4560,0 0,1054.87 -4560,0 L 0,0 Z" /></clipPath><clipPath
       id="clipPath28"
       clipPathUnits="userSpaceOnUse"><path
         id="path30"
         d="m 0,0 4560,0 0,1054.87 -4560,0 L 0,0 Z" /></clipPath></defs><g
     transform="matrix(1.25,0,0,-1.25,0,131.8625)"
     id="g10"><g
       transform="scale(0.1,0.1)"
       id="g12"><g
         id="g14"><g
           clip-path="url(#clipPath18)"
           id="g16"><path
             id="path22"
             style="fill:#0897d2;fill-opacity:1;fill-rule:nonzero;stroke:none"
             d="m 4542.21,1054.45 -14.65,-23.53 -14.44,23.53 -17.98,0 0,-60.899 16.63,0 0,35.599 15.4,-24.13 0.6,0 15.43,24.13 0,-35.599 16.81,0 0,60.899 -17.8,0 z m -109.95,0 0,-14.82 18.19,0 0,-46.079 17.02,0 0,46.079 18.19,0 0,14.82 -53.4,0" /></g></g><g
         id="g24"><g
           clip-path="url(#clipPath28)"
           id="g26"><path
             id="path32"
             style="fill:#0897d2;fill-opacity:1;fill-rule:nonzero;stroke:none"
             d="M 446.98,1.10156 239.855,247.367 l -39.773,0 0,-123.679 51.488,0 0,-107.1177 -251.57,0 0,107.1177 62,0 0,448.324 -62,0 0,107.152 242.191,0 c 134.579,0 260.95,-85.07 260.95,-212.043 0,-86.133 -53.825,-154.605 -127.539,-187.73 L 565.176,66.2539 446.98,1.10156 Z M 242.191,572.012 l -42.109,0 0,-217.528 42.109,0 c 69.043,0 120.532,51.879 120.532,109.313 0,56.336 -43.282,108.215 -120.532,108.215" /><path
             id="path34"
             style="fill:#0897d2;fill-opacity:1;fill-rule:nonzero;stroke:none"
             d="M 954.02,1.10938 C 947.012,5.53125 908.367,46.3711 894.355,66.2578 881.473,49.6914 821.813,2.19922 737.555,2.19922 c -113.489,0 -190.739,65.15238 -190.739,165.65578 0,109.313 97.137,168.938 239.891,168.938 l 57.328,0 c 0,58.531 -25.726,93.883 -80.719,93.883 -44.48,0 -85.425,-16.563 -102.976,-26.504 l -52.66,89.461 c 19.89,13.234 88.929,45.258 162.64,45.258 141.586,0 207.09,-83.903 207.09,-196.539 l 0,-108.254 c 0,-72.864 28.1,-123.676 88.93,-167.8402 L 954.02,1.10938 Z M 786.707,249.563 c -71.379,0 -104.144,-35.317 -104.144,-77.286 0,-50.816 38.605,-73.9957 72.542,-73.9957 62.036,0 98.305,56.3357 98.305,56.3357 -2.367,13.238 -7.039,40.84 -8.207,62.922 0,7.75 -1.168,26.504 -1.168,32.024 l -57.328,0" /><path
             id="path36"
             style="fill:#0897d2;fill-opacity:1;fill-rule:nonzero;stroke:none"
             d="m 1217.66,408.59 0,-175.59 c 0,-72.863 28.1,-123.68 88.93,-167.8437 L 1194.27,0.0117188 C 1117.02,66.2539 1084.25,133.633 1084.25,233 l 0,175.59 -101.773,0 0,115.965 101.773,0 0,154.574 133.41,0 0,-154.574 106.48,0 0,-115.965 -106.48,0" /><path
             id="path38"
             style="fill:#0897d2;fill-opacity:1;fill-rule:nonzero;stroke:none"
             d="m 1768.93,239.633 -326.45,0 c 4.67,-67.34 39.77,-124.778 115.82,-124.778 64.37,0 104.14,39.743 120.53,55.208 l 88.93,-76.1919 C 1738.49,66.2695 1663.61,2.21875 1551.29,2.21875 c -156.8,0 -245.73,118.16025 -245.73,268.34425 0,140.242 91.27,268.343 245.73,268.343 177.86,0 227.01,-146.894 227.01,-242.933 0,-20.989 -3.54,-43.106 -9.37,-56.34 M 1551.29,426.27 c -76.04,0 -98.3,-67.379 -102.97,-98.274 l 197.74,0 c 0,38.645 -21.05,98.274 -94.77,98.274" /><path
             id="path40"
             style="fill:#0897d2;fill-opacity:1;fill-rule:nonzero;stroke:none"
             d="m 2036.07,16.5703 -255.07,0 0,107.1137 62,0 0,448.324 -62,0 0,107.152 243.36,0 c 139.25,0 244.56,-53.012 244.56,-163.453 0,-66.246 -39.78,-120.391 -105.31,-145.762 87.76,-22.082 134.57,-80.613 134.57,-160.129 0,-121.484 -112.35,-193.2457 -262.11,-193.2457 m -10.55,555.4377 -43.27,0 0,-157.899 42.11,0 c 64.37,0 108.81,30.926 108.81,85.036 0,40.871 -32.73,72.863 -107.65,72.863 m 4.71,-263.922 -47.98,0 0,-184.402 51.48,0 c 78.39,0 125.21,39.738 125.21,93.847 0,57.434 -49.16,90.555 -128.71,90.555" /><path
             id="path42"
             style="fill:#0897d2;fill-opacity:1;fill-rule:nonzero;stroke:none"
             d="m 2769.72,239.633 -326.45,0 c 4.67,-67.34 39.77,-124.778 115.82,-124.778 64.37,0 104.15,39.743 120.53,55.208 l 88.93,-76.1919 C 2739.28,66.2695 2664.4,2.21875 2552.08,2.21875 c -156.8,0 -245.73,118.16025 -245.73,268.34425 0,140.242 91.27,268.343 245.73,268.343 177.86,0 227.01,-146.894 227.01,-242.933 0,-20.989 -3.53,-43.106 -9.37,-56.34 M 2552.08,426.27 c -76.04,0 -98.3,-67.379 -102.97,-98.274 l 197.74,0 c 0,38.645 -21.05,98.274 -94.77,98.274" /><path
             id="path44"
             style="fill:#0897d2;fill-opacity:1;fill-rule:nonzero;stroke:none"
             d="m 3253.14,239.633 -326.45,0 c 4.67,-67.34 39.77,-124.778 115.82,-124.778 64.37,0 104.15,39.743 120.53,55.208 l 88.93,-76.1919 C 3222.71,66.2695 3147.82,2.21875 3035.51,2.21875 c -156.81,0 -245.74,118.16025 -245.74,268.34425 0,140.242 91.27,268.343 245.74,268.343 177.85,0 227.01,-146.894 227.01,-242.933 0,-20.989 -3.54,-43.106 -9.38,-56.34 M 3035.51,426.27 c -76.05,0 -98.31,-67.379 -102.98,-98.274 l 197.74,0 c 0,38.645 -21.05,98.274 -94.76,98.274" /><path
             id="path46"
             style="fill:#0897d2;fill-opacity:1;fill-rule:nonzero;stroke:none"
             d="m 3456.83,325.77 0,-206.485 58.49,0 0,-102.7342 -251.57,0 0,102.7342 58.5,0 0,182.953 c 0,27.321 -2.37,126.899 -55.28,186.457 l 113.49,65.149 c 17.7,-12.172 47.32,-55.133 47.81,-84.86 12.88,12.137 73.82,69.395 156.1,69.926 l 25.76,-128.101 c -86.6,0 -143.92,-69.575 -153.3,-85.039" /><path
             id="path48"
             style="fill:#fbcf06;fill-opacity:1;fill-rule:nonzero;stroke:none"
             d="m 4198.57,289.023 c 0,0 4.91,16.989 36.51,30.86 12.14,6.441 31.25,17.765 47.85,32.133 44.37,38.394 96.43,100.922 112.42,164.55 21.95,87.407 26.47,155.387 3.01,268.45 -23.46,113.062 -73.39,257.374 -73.39,257.374 0,0 -64.58,12.35 -222.77,12.45 l 0,0.04 c -0.35,0 -0.67,0 -1.02,-0.04 -0.36,0.04 -0.67,0.04 -0.99,0.04 l 0,-0.04 c -158.22,-0.1 -222.77,-12.45 -222.77,-12.45 0,0 -49.96,-144.312 -73.43,-257.374 -23.46,-113.063 -18.89,-181.043 3.05,-268.45 15.96,-63.628 68.05,-126.156 112.39,-164.55 16.6,-14.368 35.7,-25.692 47.84,-32.133 31.6,-13.871 36.52,-30.86 36.52,-30.86 0,0 36.34,-90.875 52.23,-142.222 15.89,-51.3127 -39.35,-67.2697 -39.35,-67.2697 0,0 -152.13,-39.5313 -157.44,-40.2422 -10.01,-2.7578 -11.89,-18.7188 -3.75,-20.8008 42.75,-7.1875 223.72,-9.44924 244.71,-9.69924 l 0,-0.02734 c 0,0 0.35,0.02734 0.99,0.02734 0.64,0 1.02,-0.02734 1.02,-0.02734 l 0,0.02734 c 20.95,0.25 201.93,2.51174 244.71,9.69924 8.14,2.082 6.23,18.043 -3.79,20.8008 -5.31,0.7109 -157.44,40.2422 -157.44,40.2422 0,0 -55.24,15.957 -39.35,67.2697 15.89,51.347 52.24,142.222 52.24,142.222" /></g></g></g></g></svg>